<svg width="30" height="25" viewBox="0 0 30 25" fill="none" xmlns="http://www.w3.org/2000/svg">
<path d="M13.1399 19.9385C7.29992 19.9385 2.63992 16.3934 0.419922 11.0451C2.65992 5.69669 7.31992 2.15161 13.1399 2.15161C18.9599 2.15161 23.6399 5.69669 25.8799 11.0451C23.6399 16.3934 18.9599 19.9385 13.1399 19.9385ZM13.1399 17.8074C17.7599 17.8074 21.7399 15.041 23.5999 11.0451C21.7399 7.04915 17.7599 4.28276 13.1399 4.28276C8.53992 4.28276 4.55992 7.04915 2.69992 11.0451C4.53992 15.041 8.51992 17.8074 13.1399 17.8074ZM8.29992 11.0451C8.29992 8.29915 10.4599 6.08604 13.1199 6.08604C15.7999 6.08604 17.9599 8.31964 17.9599 11.0451C17.9599 13.791 15.7799 16.0041 13.1199 16.0041C10.4599 16.0041 8.29992 13.7705 8.29992 11.0451ZM13.4199 9.79505C13.4199 10.6557 14.0799 11.3524 14.9399 11.3524C15.7599 11.3524 16.4399 10.6557 16.4399 9.79505C16.4399 8.95489 15.7799 8.25817 14.9399 8.25817C14.0999 8.25817 13.4199 8.9344 13.4199 9.79505Z" fill="#EF233C"/>
</svg>
