<svg width="25" height="25" viewBox="0 0 25 25" fill="none" xmlns="http://www.w3.org/2000/svg">
<path fill-rule="evenodd" clip-rule="evenodd" d="M8.59389 5.46881C7.76508 5.46881 6.97023 5.79805 6.38418 6.38411C5.79813 6.97016 5.46889 7.76501 5.46889 8.59381C5.46889 9.42262 5.79813 10.2175 6.38418 10.8035C6.97023 11.3896 7.76508 11.7188 8.59389 11.7188C9.42269 11.7188 10.2175 11.3896 10.8036 10.8035C11.3896 10.2175 11.7189 9.42262 11.7189 8.59381C11.7189 7.76501 11.3896 6.97016 10.8036 6.38411C10.2175 5.79805 9.42269 5.46881 8.59389 5.46881ZM3.12514 8.59381C3.12502 7.68737 3.35023 6.7951 3.78049 5.99728C4.21076 5.19946 4.83259 4.5211 5.59006 4.02321C6.34753 3.52532 7.21688 3.22353 8.11992 3.14497C9.02296 3.06641 9.93136 3.21355 10.7634 3.57315C11.5955 3.93275 12.3251 4.49354 12.8867 5.20508C13.4483 5.91662 13.8242 6.75658 13.9806 7.64944C14.137 8.54229 14.069 9.46002 13.7828 10.3201C13.4966 11.1802 13.001 11.9556 12.3408 12.5766C13.5859 13.1807 14.6669 14.0761 15.4922 15.187C16.3174 16.2979 16.8626 17.5914 17.0814 18.9579C17.1055 19.1099 17.0994 19.2652 17.0635 19.4149C17.0276 19.5646 16.9626 19.7058 16.8721 19.8303C16.7816 19.9549 16.6675 20.0604 16.5363 20.1409C16.405 20.2214 16.2592 20.2752 16.1072 20.2993C15.9551 20.3234 15.7998 20.3173 15.6501 20.2814C15.5004 20.2455 15.3593 20.1805 15.2347 20.09C15.1101 19.9995 15.0046 19.8854 14.9242 19.7542C14.8437 19.6229 14.7899 19.4771 14.7658 19.3251C14.5293 17.8584 13.7783 16.524 12.6474 15.5607C11.5164 14.5975 10.0794 14.0685 8.59389 14.0685C7.10833 14.0685 5.67133 14.5975 4.54038 15.5607C3.40943 16.524 2.65845 17.8584 2.42201 19.3251C2.3978 19.4771 2.34387 19.6229 2.26332 19.7541C2.18276 19.8853 2.07716 19.9994 1.95252 20.0898C1.82789 20.1802 1.68667 20.2451 1.53693 20.2809C1.3872 20.3167 1.23187 20.3227 1.07982 20.2985C0.927777 20.2743 0.781988 20.2204 0.650782 20.1398C0.519575 20.0593 0.40552 19.9536 0.315128 19.829C0.224736 19.7044 0.159777 19.5632 0.123961 19.4134C0.0881452 19.2637 0.0821728 19.1084 0.106385 18.9563C0.325658 17.5904 0.871034 16.2975 1.69628 15.1872C2.52152 14.0769 3.60231 13.1819 4.84701 12.5782C4.30253 12.0673 3.86875 11.4501 3.57256 10.7647C3.27638 10.0793 3.12409 9.34044 3.12514 8.59381ZM17.1876 6.25006C16.8768 6.25006 16.5788 6.37353 16.359 6.5933C16.1392 6.81307 16.0158 7.11114 16.0158 7.42194C16.0158 7.73274 16.1392 8.03081 16.359 8.25058C16.5788 8.47035 16.8768 8.59381 17.1876 8.59381C17.7163 8.59384 18.2294 8.77261 18.6437 9.10108C19.0579 9.42955 19.349 9.88842 19.4695 10.4032C19.5901 10.9179 19.533 11.4583 19.3077 11.9365C19.0824 12.4148 18.702 12.8028 18.2283 13.0376C18.0329 13.1347 17.8686 13.2845 17.7537 13.47C17.6389 13.6555 17.5781 13.8694 17.5783 14.0876V14.6376C17.5779 14.9008 17.6662 15.1565 17.8289 15.3634C17.9916 15.5703 18.2193 15.7164 18.4751 15.7782C20.3501 16.2298 21.8533 17.6532 22.4158 19.4844C22.4604 19.6322 22.5337 19.7696 22.6316 19.889C22.7295 20.0083 22.85 20.1071 22.9862 20.1797C23.1224 20.2523 23.2715 20.2973 23.4252 20.3121C23.5788 20.3269 23.7338 20.3112 23.8813 20.266C24.0289 20.2207 24.166 20.1467 24.2849 20.0483C24.4038 19.9499 24.5021 19.829 24.5741 19.6925C24.6461 19.556 24.6904 19.4066 24.7045 19.2529C24.7187 19.0992 24.7023 18.9443 24.6564 18.7969C24.3437 17.7822 23.8278 16.8417 23.1402 16.0326C22.4525 15.2236 21.6074 14.5629 20.6564 14.0907C21.2673 13.4187 21.6698 12.5838 21.815 11.6873C21.9603 10.7909 21.842 9.87157 21.4746 9.04109C21.1072 8.2106 20.5065 7.50472 19.7454 7.00924C18.9844 6.51376 18.0958 6.25002 17.1876 6.25006Z" fill="#EF233C"/>
</svg>
