<svg width="50" height="50" viewBox="0 0 50 50" fill="none" xmlns="http://www.w3.org/2000/svg">
<path fill-rule="evenodd" clip-rule="evenodd" d="M25 10C16.7 10 10 16.7 10 25C10 31.6 14.3 37.2 20.3 39.2C21.1 39.3 21.3 38.9 21.3 38.5V35.9C17.1 36.8 16.2 33.9 16.2 33.9C15.5 32.2 14.5 31.7 14.5 31.7C13.1 30.8 14.6 30.8 14.6 30.8C16.1 30.9 16.9 32.3 16.9 32.3C18.2 34.6 20.4 33.9 21.3 33.5C21.4 32.5 21.8 31.9 22.3 31.5C19 31.1 15.5 29.8 15.5 24.1C15.5 22.5 16.1 21.1 17 20.1C16.8 19.7 16.3 18.2 17.1 16.1C17.1 16.1 18.4 15.7 21.2 17.6C22.4 17.3 23.7 17.1 25 17.1C26.3 17.1 27.6 17.3 28.8 17.6C31.7 15.7 32.9 16.1 32.9 16.1C33.7 18.2 33.2 19.7 33 20.1C34 21.1 34.5 22.5 34.5 24.1C34.5 29.9 31 31.1 27.7 31.5C28.2 32 28.7 32.9 28.7 34.3V38.4C28.7 38.8 29 39.3 29.7 39.1C35.7 37.1 39.9 31.5 39.9 24.9C40 16.7 33.3 10 25 10Z" fill="white"/>
</svg>
