<svg width="25" height="25" viewBox="0 0 25 25" fill="none" xmlns="http://www.w3.org/2000/svg">
<path fill-rule="evenodd" clip-rule="evenodd" d="M18.025 5.4125C18.7507 6.13798 19.3263 6.99932 19.7191 7.94731C20.1118 8.8953 20.314 9.91137 20.314 10.9375C20.314 11.9636 20.1118 12.9797 19.7191 13.9277C19.3263 14.8757 18.7507 15.737 18.025 16.4625L12.5 21.9844L6.97501 16.4609C6.24945 15.7354 5.67391 14.874 5.28124 13.926C4.88858 12.9781 4.68647 11.962 4.68647 10.9359C4.68647 9.90985 4.88858 8.89381 5.28124 7.94583C5.67391 6.99784 6.24945 6.13649 6.975 5.41093C7.70056 4.68538 8.56192 4.10984 9.5099 3.71717C10.4579 3.32451 11.4739 3.1224 12.5 3.1224C13.5261 3.1224 14.5421 3.32451 15.4901 3.71717C16.4381 4.10984 17.2995 4.68538 18.025 5.41093V5.4125ZM19.6813 18.1187C21.1017 16.6984 22.0691 14.8887 22.461 12.9186C22.853 10.9484 22.6519 8.90632 21.8832 7.05046C21.1146 5.1946 19.8128 3.60836 18.1426 2.49234C16.4724 1.37632 14.5088 0.78064 12.5 0.78064C10.4913 0.78064 8.52761 1.37632 6.85741 2.49234C5.1872 3.60836 3.88545 5.1946 3.11677 7.05046C2.34809 8.90632 2.14702 10.9484 2.53897 12.9186C2.93092 14.8887 3.89829 16.6984 5.31875 18.1187L10.8422 23.6437C11.0599 23.8615 11.3183 24.0343 11.6027 24.1522C11.8872 24.2701 12.1921 24.3307 12.5 24.3307C12.8079 24.3307 13.1128 24.2701 13.3973 24.1522C13.6817 24.0343 13.9402 23.8615 14.1578 23.6437L19.6813 18.1187ZM12.5 14.0625C13.3288 14.0625 14.1237 13.7333 14.7097 13.1472C15.2958 12.5612 15.625 11.7663 15.625 10.9375C15.625 10.1087 15.2958 9.31384 14.7097 8.72779C14.1237 8.14174 13.3288 7.8125 12.5 7.8125C11.6712 7.8125 10.8763 8.14174 10.2903 8.72779C9.70425 9.31384 9.37501 10.1087 9.37501 10.9375C9.37501 11.7663 9.70425 12.5612 10.2903 13.1472C10.8763 13.7333 11.6712 14.0625 12.5 14.0625Z" fill="#EF233C"/>
</svg>
