<svg width="25" height="25" viewBox="0 0 25 25" fill="none" xmlns="http://www.w3.org/2000/svg">
<g clip-path="url(#clip0)">
<path fill-rule="evenodd" clip-rule="evenodd" d="M2.34375 22.2656C2.34375 22.4813 2.51875 22.6562 2.73438 22.6562H6.25V20.7031C6.25 20.3923 6.37347 20.0943 6.59323 19.8745C6.813 19.6547 7.11107 19.5312 7.42188 19.5312H11.3281C11.6389 19.5312 11.937 19.6547 12.1568 19.8745C12.3765 20.0943 12.5 20.3923 12.5 20.7031V22.6562H16.0156C16.1192 22.6562 16.2186 22.6151 16.2918 22.5418C16.3651 22.4686 16.4062 22.3692 16.4062 22.2656V2.73438C16.4062 2.63077 16.3651 2.53142 16.2918 2.45816C16.2186 2.38491 16.1192 2.34375 16.0156 2.34375H2.73438C2.63077 2.34375 2.53142 2.38491 2.45816 2.45816C2.38491 2.53142 2.34375 2.63077 2.34375 2.73438V22.2656ZM2.73438 25C2.00917 25 1.31367 24.7119 0.80088 24.1991C0.288085 23.6863 0 22.9908 0 22.2656L0 2.73438C0 1.225 1.225 0 2.73438 0H16.0156C17.525 0 18.75 1.225 18.75 2.73438V22.2656C18.75 22.3984 18.7406 22.5281 18.7219 22.6562H22.2656C22.3692 22.6562 22.4686 22.6151 22.5418 22.5418C22.6151 22.4686 22.6562 22.3692 22.6562 22.2656V12.9453C22.6563 12.8811 22.6405 12.8178 22.6102 12.7611C22.58 12.7044 22.5362 12.656 22.4828 12.6203L20.8344 11.5219C20.7045 11.4373 20.5927 11.3279 20.5054 11.1998C20.4181 11.0718 20.357 10.9277 20.3258 10.7759C20.2946 10.6241 20.2938 10.4676 20.3234 10.3155C20.3531 10.1634 20.4126 10.0186 20.4986 9.88969C20.5846 9.76074 20.6952 9.65012 20.8243 9.56424C20.9533 9.47836 21.098 9.41892 21.2502 9.38936C21.4023 9.35981 21.5588 9.36072 21.7105 9.39205C21.8623 9.42337 22.0064 9.4845 22.1344 9.57187L23.7828 10.6703C24.5437 11.1781 25 12.0312 25 12.9453V22.2656C25 22.9908 24.7119 23.6863 24.1991 24.1991C23.6863 24.7119 22.9908 25 22.2656 25H16.7969C16.6929 25.0002 16.5894 24.9865 16.4891 24.9594C16.3344 24.9859 16.1766 25 16.0156 25H11.3281C11.0173 25 10.7193 24.8765 10.4995 24.6568C10.2797 24.437 10.1562 24.1389 10.1562 23.8281V21.875H8.59375V23.8281C8.59375 24.1389 8.47029 24.437 8.25052 24.6568C8.03075 24.8765 7.73268 25 7.42188 25H2.73438ZM4.6875 5.85938C4.6875 5.54857 4.81097 5.2505 5.03073 5.03073C5.2505 4.81097 5.54857 4.6875 5.85938 4.6875H6.64062C6.95143 4.6875 7.2495 4.81097 7.46927 5.03073C7.68903 5.2505 7.8125 5.54857 7.8125 5.85938C7.8125 6.17018 7.68903 6.46825 7.46927 6.68802C7.2495 6.90778 6.95143 7.03125 6.64062 7.03125H5.85938C5.54857 7.03125 5.2505 6.90778 5.03073 6.68802C4.81097 6.46825 4.6875 6.17018 4.6875 5.85938ZM5.85938 9.375C5.54857 9.375 5.2505 9.49846 5.03073 9.71823C4.81097 9.938 4.6875 10.2361 4.6875 10.5469C4.6875 10.8577 4.81097 11.1557 5.03073 11.3755C5.2505 11.5953 5.54857 11.7188 5.85938 11.7188H6.64062C6.95143 11.7188 7.2495 11.5953 7.46927 11.3755C7.68903 11.1557 7.8125 10.8577 7.8125 10.5469C7.8125 10.2361 7.68903 9.938 7.46927 9.71823C7.2495 9.49846 6.95143 9.375 6.64062 9.375H5.85938ZM4.6875 15.2344C4.6875 14.9236 4.81097 14.6255 5.03073 14.4057C5.2505 14.186 5.54857 14.0625 5.85938 14.0625H6.64062C6.95143 14.0625 7.2495 14.186 7.46927 14.4057C7.68903 14.6255 7.8125 14.9236 7.8125 15.2344C7.8125 15.5452 7.68903 15.8432 7.46927 16.063C7.2495 16.2828 6.95143 16.4062 6.64062 16.4062H5.85938C5.54857 16.4062 5.2505 16.2828 5.03073 16.063C4.81097 15.8432 4.6875 15.5452 4.6875 15.2344ZM12.1094 14.0625C11.7986 14.0625 11.5005 14.186 11.2807 14.4057C11.061 14.6255 10.9375 14.9236 10.9375 15.2344C10.9375 15.5452 11.061 15.8432 11.2807 16.063C11.5005 16.2828 11.7986 16.4062 12.1094 16.4062H12.8906C13.2014 16.4062 13.4995 16.2828 13.7193 16.063C13.939 15.8432 14.0625 15.5452 14.0625 15.2344C14.0625 14.9236 13.939 14.6255 13.7193 14.4057C13.4995 14.186 13.2014 14.0625 12.8906 14.0625H12.1094ZM10.9375 10.5469C10.9375 10.2361 11.061 9.938 11.2807 9.71823C11.5005 9.49846 11.7986 9.375 12.1094 9.375H12.8906C13.2014 9.375 13.4995 9.49846 13.7193 9.71823C13.939 9.938 14.0625 10.2361 14.0625 10.5469C14.0625 10.8577 13.939 11.1557 13.7193 11.3755C13.4995 11.5953 13.2014 11.7188 12.8906 11.7188H12.1094C11.7986 11.7188 11.5005 11.5953 11.2807 11.3755C11.061 11.1557 10.9375 10.8577 10.9375 10.5469ZM12.1094 4.6875C11.7986 4.6875 11.5005 4.81097 11.2807 5.03073C11.061 5.2505 10.9375 5.54857 10.9375 5.85938C10.9375 6.17018 11.061 6.46825 11.2807 6.68802C11.5005 6.90778 11.7986 7.03125 12.1094 7.03125H12.8906C13.2014 7.03125 13.4995 6.90778 13.7193 6.68802C13.939 6.46825 14.0625 6.17018 14.0625 5.85938C14.0625 5.54857 13.939 5.2505 13.7193 5.03073C13.4995 4.81097 13.2014 4.6875 12.8906 4.6875H12.1094Z" fill="#EF233C"/>
</g>
<defs>
<clipPath id="clip0">
<rect width="25" height="25" fill="white"/>
</clipPath>
</defs>
</svg>
