<svg width="43" height="43" viewBox="0 0 43 43" fill="none" xmlns="http://www.w3.org/2000/svg">
<path d="M21.5 42.4961C33.0958 42.4961 42.4961 33.0958 42.4961 21.5C42.4961 9.90418 33.0958 0.503906 21.5 0.503906C9.90418 0.503906 0.503906 9.90418 0.503906 21.5C0.503906 33.0958 9.90418 42.4961 21.5 42.4961Z" fill="white"/>
<path d="M41.3371 28.3784C41.3203 28.3616 41.3035 28.3364 41.2867 28.3196C35.7018 22.7346 30.1252 17.1497 24.5402 11.5731C22.2391 9.28032 18.9301 8.43208 15.8395 9.22153C11.2371 10.3973 8.32287 14.8653 9.07873 19.5432C9.38947 21.4749 10.2377 23.1377 11.6151 24.5151C17.1832 30.0917 22.7598 35.6598 28.3279 41.2364C28.3615 41.27 28.3951 41.2952 28.4203 41.312C34.4672 39.2208 39.2459 34.4252 41.3371 28.3784Z" fill="#E6E6E6"/>
<path d="M33.2578 29.2014L28.0592 24.0027C27.9416 23.8852 27.7736 23.8096 27.5972 23.8096C27.4293 23.8096 27.2613 23.8768 27.1353 24.0027L26.0351 25.1197L24.9433 24.0279C26.3879 22.365 27.1773 20.2654 27.1773 18.0398C27.1773 15.5959 26.2283 13.3031 24.4982 11.573C20.9373 8.01211 15.134 8.01211 11.573 11.573C9.84294 13.3031 8.89392 15.5959 8.89392 18.0398C8.89392 20.4838 9.84294 22.7766 11.573 24.5066C13.3535 26.2871 15.6967 27.1773 18.0398 27.1773C20.1814 27.1773 22.3146 26.4299 24.0279 24.9434L25.1197 26.0352L24.0111 27.1438C23.8935 27.2613 23.8179 27.4293 23.8179 27.6057C23.8179 27.782 23.8851 27.9416 24.0111 28.0676L29.2097 33.2662C29.7472 33.8037 30.4695 34.1061 31.2338 34.1061C31.998 34.1061 32.7203 33.8121 33.2578 33.2662C33.7953 32.7287 34.0976 32.0064 34.0976 31.2422C34.0976 30.4611 33.8037 29.7473 33.2578 29.2014ZM23.5912 23.5828C20.5342 26.6398 15.5539 26.6398 12.4969 23.5828C11.0187 22.1047 10.1957 20.1311 10.1957 18.0398C10.1957 15.9486 11.0103 13.975 12.4969 12.4969C14.0254 10.9684 16.0326 10.2041 18.0398 10.2041C20.047 10.2041 22.0543 10.9684 23.5828 12.4969C25.0609 13.975 25.884 15.9486 25.884 18.0398C25.884 20.1311 25.0693 22.1047 23.5912 23.5828ZM25.3885 27.5973L27.6056 25.3801L28.5295 26.3039L26.3123 28.5211L25.3885 27.5973ZM32.3424 32.3424C32.0484 32.6363 31.6537 32.8043 31.2338 32.8043C30.8138 32.8043 30.4191 32.6447 30.1252 32.3424L27.2277 29.4449L29.4449 27.2277L32.3424 30.1252C32.6363 30.4191 32.8043 30.8139 32.8043 31.2338C32.8043 31.6453 32.6363 32.04 32.3424 32.3424Z" fill="#EF233C"/>
</svg>
