<svg width="30" height="30" viewBox="0 0 30 30" fill="none" xmlns="http://www.w3.org/2000/svg">
<path fill-rule="evenodd" clip-rule="evenodd" d="M15 0.46875C15.2625 0.46858 15.5198 0.541901 15.7428 0.680413C15.9659 0.818925 16.1456 1.0171 16.2618 1.2525L19.7906 8.40562L27.6843 9.55312C27.944 9.59083 28.1879 9.70041 28.3885 9.86947C28.5891 10.0385 28.7384 10.2603 28.8195 10.5098C28.9007 10.7593 28.9104 11.0265 28.8476 11.2812C28.7849 11.5359 28.6521 11.768 28.4643 11.9513L22.7531 17.52L24.1012 25.38C24.1457 25.6386 24.1169 25.9045 24.0181 26.1476C23.9193 26.3907 23.7545 26.6014 23.5422 26.7557C23.33 26.91 23.0788 27.0018 22.8171 27.0208C22.5553 27.0398 22.2935 26.9852 22.0612 26.8631L15 23.1506L7.93872 26.8631C7.70658 26.985 7.44497 27.0396 7.18345 27.0206C6.92194 27.0017 6.67092 26.91 6.45875 26.756C6.24658 26.6019 6.08171 26.3916 5.98275 26.1488C5.88379 25.906 5.85468 25.6404 5.89872 25.3819L7.24872 17.5181L1.53372 11.9513C1.34541 11.7681 1.21216 11.5359 1.14907 11.2809C1.08598 11.0259 1.09558 10.7583 1.17677 10.5085C1.25796 10.2587 1.4075 10.0366 1.60845 9.86739C1.8094 9.69821 2.05372 9.58869 2.31372 9.55125L10.2075 8.40562L13.7381 1.2525C13.8543 1.0171 14.0341 0.818925 14.2571 0.680413C14.4801 0.541901 14.7374 0.46858 15 0.46875ZM15 5.05313L12.4031 10.3125C12.3023 10.5167 12.1533 10.6933 11.9691 10.8272C11.7849 10.9611 11.5709 11.0483 11.3456 11.0812L5.53872 11.925L9.73872 16.02C9.90213 16.1791 10.0244 16.3756 10.0949 16.5925C10.1655 16.8094 10.1822 17.0402 10.1437 17.265L9.15372 23.0475L14.3456 20.3175C14.5474 20.2114 14.772 20.156 15 20.156C15.228 20.156 15.4525 20.2114 15.6543 20.3175L20.8481 23.0475L19.8543 17.265C19.8158 17.0402 19.8326 16.8094 19.9031 16.5925C19.9737 16.3756 20.0959 16.1791 20.2593 16.02L24.4593 11.9269L18.6543 11.0831C18.429 11.0502 18.215 10.963 18.0308 10.8291C17.8466 10.6952 17.6977 10.5186 17.5968 10.3144L15 5.05125V5.05313Z" fill="#EF233C"/>
</svg>
