<svg width="25" height="25" viewBox="0 0 25 25" fill="none" xmlns="http://www.w3.org/2000/svg">
<g clip-path="url(#clip0)">
<path d="M25 2.95771C24.0656 3.47027 23.0731 3.80402 22.0567 3.94736C23.1292 3.16222 23.9319 1.92261 24.3144 0.461081C23.3048 1.1943 22.2014 1.71146 21.0512 1.99055C20.3476 1.06845 19.4349 0.427828 18.4317 0.151818C17.4284 -0.124192 16.3809 -0.0228483 15.4251 0.442697C14.4693 0.908243 13.6492 1.7165 13.0714 2.76257C12.4935 3.80865 12.1846 5.04425 12.1846 6.30904C12.1835 6.79388 12.2295 7.27716 12.3218 7.74854C10.2823 7.62138 8.28724 6.96913 6.46551 5.83395C4.64378 4.69876 3.03593 3.10591 1.74589 1.15834C1.08961 2.54763 0.888767 4.19259 1.18431 5.75779C1.47985 7.323 2.24952 8.69057 3.33638 9.58165C2.52262 9.54989 1.72672 9.28003 1.01463 8.79442V8.87314C1.01461 10.3298 1.42422 11.7417 2.17397 12.8691C2.92372 13.9965 3.96742 14.7701 5.12797 15.0585C4.68729 15.2079 4.23225 15.2836 3.77514 15.2834C3.45015 15.28 3.12599 15.2423 2.80622 15.1709C3.13411 16.4245 3.77186 17.5209 4.6305 18.3072C5.48914 19.0934 6.52584 19.5303 7.59598 19.5569C5.77765 21.3085 3.53424 22.2589 1.22486 22.256C0.815525 22.2544 0.406586 22.2243 0 22.166C2.34493 24.0194 5.07392 25.0033 7.86106 25C17.2943 25 22.4497 15.3846 22.4497 7.05128C22.4497 6.78137 22.4406 6.50022 22.4314 6.23032C23.439 5.3361 24.3088 4.22786 25 2.95771Z" fill="#EF233C"/>
</g>
<defs>
<clipPath id="clip0">
<rect width="25" height="25" fill="white"/>
</clipPath>
</defs>
</svg>
